<svg xmlns="http://www.w3.org/2000/svg" width="200" height="200">
  <rect width="200" height="200" fill="#1A1A2A" rx="15"/>
  <g transform="translate(100, 95)">
    <!-- 炭 -->
    <path d="M-35 -5 Q-30 -20 -15 -18 Q-5 -25 10 -20 Q20 -22 30 -15 Q35 -5 30 5 Q25 15 15 15 Q5 20 -10 18 Q-20 20 -30 12 Q-35 8 -35 -5Z" fill="#2A1A0A"/>
    <!-- 余烬 -->
    <ellipse cx="-15" cy="-8" rx="6" ry="4" fill="#6A2A0A" opacity="0.6"/>
    <ellipse cx="5" cy="-12" rx="5" ry="3" fill="#8A3A0A" opacity="0.5"/>
    <ellipse cx="20" cy="-5" rx="4" ry="3" fill="#4A1A0A" opacity="0.7"/>
    <ellipse cx="-5" cy="5" rx="7" ry="4" fill="#5A2A0A" opacity="0.4"/>
    <!-- 暗红光芒 -->
    <circle cx="-15" cy="-8" r="10" fill="#8A2A0A" opacity="0.2"/>
    <circle cx="5" cy="-12" r="8" fill="#8A3A0A" opacity="0.15"/>
  </g>
  <text x="100" y="175" font-family="serif" font-size="11" fill="#5A3A2A" text-anchor="middle" opacity="0.6">篝火炭</text>
</svg>