<svg xmlns="http://www.w3.org/2000/svg" width="200" height="200">
  <rect width="200" height="200" fill="#1A1A2A" rx="15"/>
  <g transform="translate(100, 100) rotate(15)">
    <path d="M0 -40 Q15 -30 20 -15 Q22 -5 18 5 Q12 15 0 20" fill="#6A6A7A" opacity="0.8"/>
    <path d="M0 -40 Q-10 -32 -12 -20 Q-13 -10 -8 2 Q-4 12 0 20" fill="#5A5A6A" opacity="0.7"/>
    <line x1="0" y1="-40" x2="0" y2="20" stroke="#4A4A5A" stroke-width="1.5"/>
    <!-- 羽丝 -->
    <g stroke="#7A7A8A" stroke-width="0.5" opacity="0.6">
      <line x1="2" y1="-30" x2="12" y2="-28"/>
      <line x1="3" y1="-20" x2="16" y2="-18"/>
      <line x1="3" y1="-10" x2="14" y2="-8"/>
      <line x1="2" y1="0" x2="12" y2="2"/>
      <line x1="-2" y1="-30" x2="-10" y2="-28"/>
      <line x1="-2" y1="-20" x2="-12" y2="-18"/>
      <line x1="-2" y1="-10" x2="-10" y2="-8"/>
      <line x1="-1" y1="0" x2="-8" y2="2"/>
    </g>
  </g>
  <text x="100" y="175" font-family="serif" font-size="11" fill="#7A7A8A" text-anchor="middle" opacity="0.6">雁羽</text>
</svg>