<svg xmlns="http://www.w3.org/2000/svg" width="1280" height="720">
  <defs>
    <linearGradient id="sky" x1="0" y1="0" x2="0" y2="1">
      <stop offset="0%" stop-color="#E8D5B7"/>
      <stop offset="40%" stop-color="#F5E6CC"/>
      <stop offset="100%" stop-color="#C9A96E"/>
    </linearGradient>
    <radialGradient id="sunlight" cx="80%" cy="10%" r="50%">
      <stop offset="0%" stop-color="#FFE4A0" stop-opacity="0.4"/>
      <stop offset="100%" stop-color="#FFE4A0" stop-opacity="0"/>
    </radialGradient>
    <linearGradient id="wall" x1="0" y1="0" x2="0" y2="1">
      <stop offset="0%" stop-color="#8B7355"/>
      <stop offset="100%" stop-color="#6B5740"/>
    </linearGradient>
  </defs>
  <rect width="1280" height="720" fill="#D4C4A8"/>
  <rect width="1280" height="720" fill="url(#sunlight)"/>
  <!-- 宫墙 -->
  <rect x="0" y="100" width="1280" height="500" fill="url(#wall)"/>
  <!-- 窗棂 -->
  <rect x="400" y="150" width="480" height="380" fill="#4A3728" rx="3"/>
  <rect x="410" y="160" width="460" height="360" fill="#2A1F14" rx="2"/>
  <!-- 窗格 -->
  <line x1="640" y1="160" x2="640" y2="520" stroke="#5A4330" stroke-width="3"/>
  <line x1="410" y1="340" x2="870" y2="340" stroke="#5A4330" stroke-width="3"/>
  <line x1="410" y1="250" x2="870" y2="250" stroke="#5A4330" stroke-width="2"/>
  <line x1="410" y1="430" x2="870" y2="430" stroke="#5A4330" stroke-width="2"/>
  <!-- 透过窗的光 -->
  <rect x="412" y="162" width="226" height="86" fill="#FFE4A0" opacity="0.08"/>
  <rect x="642" y="162" width="226" height="86" fill="#FFE4A0" opacity="0.05"/>
  <!-- 铜镜 -->
  <ellipse cx="640" cy="480" rx="40" ry="45" fill="#B8860B" opacity="0.6"/>
  <ellipse cx="640" cy="480" rx="30" ry="34" fill="#DAA520" opacity="0.4"/>
  <line x1="640" y1="525" x2="640" y2="555" stroke="#8B6914" stroke-width="3"/>
  <!-- 铜镜划痕 -->
  <line x1="630" y1="470" x2="650" y2="485" stroke="#B8860B" stroke-width="0.5" opacity="0.6"/>
  <!-- 地面 -->
  <rect x="0" y="600" width="1280" height="120" fill="#4A3728"/>
  <!-- 地板纹理 -->
  <g stroke="#3A2A1A" stroke-width="1" opacity="0.3">
    <line x1="0" y1="620" x2="1280" y2="620"/>
    <line x1="0" y1="650" x2="1280" y2="650"/>
    <line x1="0" y1="680" x2="1280" y2="680"/>
  </g>
</svg>