<svg xmlns="http://www.w3.org/2000/svg" width="1280" height="720">
  <defs>
    <linearGradient id="sky" x1="0" y1="0" x2="0" y2="1">
      <stop offset="0%" stop-color="#8A7A5A"/>
      <stop offset="40%" stop-color="#A0906A"/>
      <stop offset="100%" stop-color="#B0A07A"/>
    </linearGradient>
    <linearGradient id="river" x1="0" y1="0" x2="0" y2="1">
      <stop offset="0%" stop-color="#8A7A3A"/>
      <stop offset="100%" stop-color="#6A5A2A"/>
    </linearGradient>
  </defs>
  <rect width="1280" height="720" fill="url(#sky)"/>
  <!-- 对岸山影 -->
  <path d="M0 300 Q200 240 400 280 Q600 230 800 260 Q1000 220 1280 290 L1280 720 L0 720Z" fill="#7A6A4A" opacity="0.4"/>
  <!-- 黄河 -->
  <rect x="0" y="330" width="1280" height="250" fill="url(#river)" opacity="0.8"/>
  <!-- 波浪 -->
  <g stroke="#9A8A4A" stroke-width="2" fill="none" opacity="0.4">
    <path d="M0 360 Q40 350 80 360 Q120 370 160 360 Q200 350 240 360 Q280 370 320 360 Q360 350 400 360 Q440 370 480 360 Q520 350 560 360 Q600 370 640 360 Q680 350 720 360 Q760 370 800 360 Q840 350 880 360 Q920 370 960 360 Q1000 350 1040 360 Q1080 370 1120 360 Q1160 350 1200 360 Q1240 370 1280 360"/>
    <path d="M0 420 Q50 410 100 420 Q150 430 200 420 Q250 410 300 420 Q350 430 400 420 Q450 410 500 420 Q550 430 600 420 Q650 410 700 420 Q750 430 800 420 Q850 410 900 420 Q950 430 1000 420 Q1050 410 1100 420 Q1150 430 1200 420 Q1250 410 1280 420"/>
    <path d="M0 480 Q60 470 120 480 Q180 490 240 480 Q300 470 360 480 Q420 490 480 480 Q540 470 600 480 Q660 490 720 480 Q780 470 840 480 Q900 490 960 480 Q1020 470 1080 480 Q1140 490 1200 480 Q1260 470 1280 480"/>
  </g>
  <!-- 渡船 -->
  <g transform="translate(500, 390)">
    <path d="M0 0 L80 0 L70 25 L10 25Z" fill="#5A4A2A"/>
    <rect x="25" y="-5" width="30" height="20" fill="#4A3A1A" rx="2"/>
  </g>
  <!-- 抬车的壮汉 -->
  <g transform="translate(300, 550)">
    <rect x="0" y="-40" width="60" height="35" fill="#4A3A2A" rx="2"/>
    <circle cx="10" cy="-42" r="6" fill="#5A4A3A"/>
    <circle cx="50" cy="-42" r="6" fill="#5A4A3A"/>
    <line x1="10" y1="-36" x2="10" y2="-15" stroke="#5A4A3A" stroke-width="2"/>
    <line x1="50" y1="-36" x2="50" y2="-15" stroke="#5A4A3A" stroke-width="2"/>
  </g>
  <!-- 岸边 -->
  <path d="M0 580 Q200 570 400 575 Q600 580 800 572 Q1000 578 1280 575 L1280 720 L0 720Z" fill="#7A6A4A"/>
</svg>