<svg xmlns="http://www.w3.org/2000/svg" width="1280" height="720">
  <defs>
    <linearGradient id="sky" x1="0" y1="0" x2="0" y2="1">
      <stop offset="0%" stop-color="#1A3A6A"/>
      <stop offset="30%" stop-color="#2A5A8A"/>
      <stop offset="60%" stop-color="#4A8ABA"/>
      <stop offset="100%" stop-color="#7ABA8A"/>
    </linearGradient>
  </defs>
  <rect width="1280" height="720" fill="url(#sky)"/>
  <!-- 云朵 -->
  <g fill="white" opacity="0.3">
    <ellipse cx="200" cy="120" rx="100" ry="30"/>
    <ellipse cx="260" cy="115" rx="70" ry="20"/>
    <ellipse cx="800" cy="150" rx="120" ry="35"/>
    <ellipse cx="880" cy="145" rx="80" ry="22"/>
    <ellipse cx="1050" cy="100" rx="90" ry="25"/>
  </g>
  <!-- 远山 -->
  <path d="M0 350 Q200 300 400 330 Q600 280 800 310 Q1000 290 1280 340 L1280 720 L0 720Z" fill="#3A6A3A" opacity="0.3"/>
  <!-- 草原 -->
  <path d="M0 380 Q200 360 400 370 Q600 365 800 375 Q1000 360 1280 370 L1280 720 L0 720Z" fill="#4A8A3A" opacity="0.4"/>
  <path d="M0 420 Q200 410 400 415 Q600 405 800 420 Q1000 408 1280 415 L1280 720 L0 720Z" fill="#5A9A4A" opacity="0.3"/>
  <!-- 草 -->
  <g stroke="#6AAA5A" stroke-width="1" opacity="0.4">
    <line x1="100" y1="450" x2="100" y2="430"/>
    <line x1="200" y1="460" x2="205" y2="440"/>
    <line x1="350" y1="445" x2="345" y2="425"/>
    <line x1="500" y1="455" x2="502" y2="435"/>
    <line x1="650" y1="448" x2="648" y2="428"/>
    <line x1="800" y1="458" x2="803" y2="438"/>
    <line x1="950" y1="450" x2="948" y2="430"/>
    <line x1="1100" y1="460" x2="1102" y2="440"/>
  </g>
  <!-- 远处车队 -->
  <g transform="translate(700, 390)" opacity="0.4">
    <rect x="0" y="-15" width="20" height="12" fill="#3A2A1A"/>
    <circle cx="5" cy="-1" r="3" fill="#2A1A0A"/>
    <circle cx="15" cy="-1" r="3" fill="#2A1A0A"/>
  </g>
  <!-- 鹰 -->
  <g transform="translate(300, 80)" opacity="0.5">
    <path d="M0 0 L-20 -5 L-10 2Z" fill="#1A1A2E"/>
    <path d="M0 0 L20 -5 L10 2Z" fill="#1A1A2E"/>
  </g>
</svg>