<svg xmlns="http://www.w3.org/2000/svg" width="1280" height="720">
  <defs>
    <radialGradient id="firelight" cx="50%" cy="60%" r="40%">
      <stop offset="0%" stop-color="#FF6A1A" stop-opacity="0.3"/>
      <stop offset="30%" stop-color="#FFA040" stop-opacity="0.15"/>
      <stop offset="60%" stop-color="#FFD070" stop-opacity="0.05"/>
      <stop offset="100%" stop-color="#000000" stop-opacity="0"/>
    </radialGradient>
    <radialGradient id="fire-core" cx="50%" cy="50%" r="50%">
      <stop offset="0%" stop-color="#FFFFFF"/>
      <stop offset="20%" stop-color="#FFD070"/>
      <stop offset="50%" stop-color="#FF6A1A"/>
      <stop offset="100%" stop-color="#CC3300"/>
    </radialGradient>
  </defs>
  <!-- 夜空 -->
  <rect width="1280" height="720" fill="#0A0A1A"/>
  <!-- 星星 -->
  <g fill="white" opacity="0.6">
    <circle cx="100" cy="80" r="1.5"/>
    <circle cx="250" cy="50" r="1"/>
    <circle cx="400" cy="120" r="1.5"/>
    <circle cx="550" cy="40" r="1"/>
    <circle cx="700" cy="90" r="1.5"/>
    <circle cx="850" cy="60" r="1"/>
    <circle cx="1000" cy="130" r="1.5"/>
    <circle cx="1150" cy="70" r="1"/>
    <circle cx="180" cy="160" r="0.8"/>
    <circle cx="320" cy="200" r="1"/>
    <circle cx="950" cy="180" r="0.8"/>
    <circle cx="1080" cy="210" r="1"/>
  </g>
  <!-- 火光 -->
  <rect width="1280" height="720" fill="url(#firelight)"/>
  <!-- 地面 -->
  <path d="M0 550 Q200 530 400 540 Q600 545 800 535 Q1000 540 1280 545 L1280 720 L0 720Z" fill="#1A1A0A"/>
  <!-- 篝火 -->
  <g transform="translate(640, 520)">
    <!-- 木柴 -->
    <line x1="-20" y1="15" x2="20" y2="15" stroke="#3A2A0A" stroke-width="4" stroke-linecap="round"/>
    <line x1="-15" y1="15" x2="0" y2="-5" stroke="#3A2A0A" stroke-width="3" stroke-linecap="round"/>
    <line x1="15" y1="15" x2="5" y2="-8" stroke="#3A2A0A" stroke-width="3" stroke-linecap="round"/>
    <!-- 火焰 -->
    <ellipse cx="0" cy="-5" rx="15" ry="25" fill="url(#fire-core)" opacity="0.8"/>
    <ellipse cx="-5" cy="-10" rx="8" ry="18" fill="#FFA040" opacity="0.6"/>
    <ellipse cx="5" cy="-8" rx="6" ry="15" fill="#FFD070" opacity="0.5"/>
    <!-- 火星 -->
    <circle cx="-8" cy="-30" r="1.5" fill="#FF6A1A" opacity="0.6"/>
    <circle cx="6" cy="-35" r="1" fill="#FFA040" opacity="0.4"/>
    <circle cx="-2" cy="-40" r="1" fill="#FFD070" opacity="0.3"/>
  </g>
  <!-- 人物剪影 -->
  <g transform="translate(500, 500)" fill="#1A1A1A" opacity="0.7">
    <ellipse cx="0" cy="-20" rx="12" ry="18"/>
    <path d="M-12 -5 Q-20 10 -15 20" stroke="#1A1A1A" stroke-width="3" fill="none"/>
    <path d="M12 -5 Q20 10 15 20" stroke="#1A1A1A" stroke-width="3" fill="none"/>
  </g>
  <g transform="translate(780, 500)" fill="#1A1A1A" opacity="0.6" transform-origin="780 500">
    <ellipse cx="0" cy="-15" rx="10" ry="15"/>
    <path d="M-10 -5 Q-18 10 -12 18" stroke="#1A1A1A" stroke-width="3" fill="none"/>
  </g>
  <g transform="translate(570, 510)" fill="#1A1A1A" opacity="0.5">
    <ellipse cx="0" cy="-12" rx="8" ry="12"/>
  </g>
</svg>