<svg xmlns="http://www.w3.org/2000/svg" width="1280" height="720">
  <defs>
    <linearGradient id="sky" x1="0" y1="0" x2="0" y2="1">
      <stop offset="0%" stop-color="#4A6A8A"/>
      <stop offset="50%" stop-color="#7A9ABA"/>
      <stop offset="100%" stop-color="#9ABA9A"/>
    </linearGradient>
  </defs>
  <rect width="1280" height="720" fill="url(#sky)"/>
  <!-- 远山 -->
  <path d="M0 400 Q200 350 400 380 Q600 340 800 370 Q1000 330 1280 380 L1280 720 L0 720Z" fill="#5A7A5A" opacity="0.3"/>
  <!-- 草原 -->
  <path d="M0 430 Q300 420 600 425 Q900 415 1280 430 L1280 720 L0 720Z" fill="#6A9A5A" opacity="0.3"/>
  <!-- 帐篷 -->
  <g transform="translate(500, 390)">
    <path d="M-60 40 L0 -20 L60 40Z" fill="#6A4A2A"/>
    <path d="M-55 40 L0 -15 L55 40Z" fill="#7A5A3A"/>
    <rect x="-3" y="20" width="6" height="20" fill="#4A2A1A"/>
    <path d="M-60 40 L-50 50 L50 50 L60 40Z" fill="#5A3A1A"/>
  </g>
  <g transform="translate(380, 400) scale(0.7)">
    <path d="M-50 35 L0 -15 L50 35Z" fill="#5A3A1A"/>
    <path d="M-45 35 L0 -10 L45 35Z" fill="#6A4A2A"/>
    <rect x="-2" y="15" width="4" height="18" fill="#3A1A0A"/>
  </g>
  <g transform="translate(700, 395) scale(0.8)">
    <path d="M-50 35 L0 -15 L50 35Z" fill="#5A3A1A"/>
    <path d="M-45 35 L0 -10 L45 35Z" fill="#6A4A2A"/>
    <rect x="-2" y="15" width="4" height="18" fill="#3A1A0A"/>
  </g>
  <!-- 旌旗 -->
  <g transform="translate(560, 350)">
    <line x1="0" y1="0" x2="0" y2="-40" stroke="#4A2A1A" stroke-width="2"/>
    <path d="M0 -40 L25 -35 L0 -30Z" fill="#8A2A1A" opacity="0.7"/>
  </g>
  <g transform="translate(440, 360)">
    <line x1="0" y1="0" x2="0" y2="-35" stroke="#4A2A1A" stroke-width="2"/>
    <path d="M0 -35 L20 -30 L0 -25Z" fill="#8A2A1A" opacity="0.6"/>
  </g>
  <!-- 远处的马车 -->
  <g transform="translate(300, 430)" opacity="0.4">
    <rect x="0" y="-12" width="18" height="10" fill="#3A2A1A"/>
    <circle cx="4" cy="0" r="3" fill="#2A1A0A"/>
    <circle cx="14" cy="0" r="3" fill="#2A1A0A"/>
  </g>
  <!-- 风痕 -->
  <g stroke="#8A9A8A" stroke-width="0.5" opacity="0.2">
    <line x1="100" y1="460" x2="160" y2="458"/>
    <line x1="800" y1="440" x2="880" y2="436"/>
    <line x1="600" y1="470" x2="660" y2="468"/>
  </g>
</svg>